<svg xmlns="http://www.w3.org/2000/svg" width="149.115" height="75.59" viewBox="0 0 149.115 75.59">
  <defs>
    <style>
      .cls-1 {
        fill: #fff;
      }
    </style>
  </defs>
  <g id="mail-send" transform="translate(0 -85.26)">
    <path id="Path_512" data-name="Path 512" class="cls-1" d="M174,160.788c.056-.011.111-.026.166-.041s.094-.022.141-.036.106-.037.159-.056.094-.032.14-.051.1-.045.146-.068.095-.043.141-.068.09-.053.135-.079.093-.053.138-.084.092-.067.138-.1.078-.056.116-.087c.07-.057.136-.119.2-.182.012-.011.024-.021.036-.032s.022-.025.034-.038c.062-.064.122-.129.179-.2.033-.041.062-.083.093-.125s.066-.085.1-.13.06-.1.089-.147.051-.082.074-.125.049-.1.073-.151.044-.089.063-.135.037-.1.055-.15.037-.1.052-.148.027-.1.04-.154.027-.1.037-.152.019-.122.028-.183c.006-.043.014-.086.019-.129a3.226,3.226,0,0,0,.016-.323V88.494a3.233,3.233,0,0,0-3.234-3.234H71.509c-.028,0-.056,0-.085,0-.062,0-.123,0-.184.009s-.1.009-.145.016-.11.015-.165.025-.1.02-.153.031-.1.025-.153.04-.1.03-.149.046-.1.035-.15.055-.093.038-.139.058-.1.047-.151.073-.085.044-.126.068-.1.059-.148.09-.079.053-.118.08-.091.066-.135.1-.08.066-.119.1-.077.068-.115.1-.084.084-.124.127c-.02.022-.042.041-.061.063s-.021.027-.032.04c-.041.047-.078.1-.116.146s-.056.072-.082.11-.065.1-.1.148-.052.081-.075.123-.051.1-.075.147-.046.091-.066.137-.04.1-.058.149-.038.1-.053.146-.029.1-.043.15-.028.1-.04.155-.018.1-.027.147-.019.112-.026.168-.008.094-.012.141-.008.121-.009.182c0,.018,0,.035,0,.053v19.943a3.234,3.234,0,0,0,6.468,0V95.675l28.751,25.455a3.266,3.266,0,0,0-.429.357L74.742,149.809V128.557a3.234,3.234,0,1,0-6.468,0v3.951H51.567a3.234,3.234,0,0,0,0,6.468H68.275v18.64a3.233,3.233,0,0,0,3.234,3.234H173.373c.107,0,.213-.006.319-.016.05,0,.1-.014.146-.021S173.95,160.8,174,160.788ZM170.14,149.81l-28.323-28.322c-.018-.018-.038-.033-.056-.05l21.293-18.065a3.234,3.234,0,0,0-4.185-4.931l-36.383,30.868L80.04,91.728h90.1Zm-62.5-23.749a3.222,3.222,0,0,0,.564-.761L120.3,136.008a3.234,3.234,0,0,0,4.236.045L136.86,125.6a3.25,3.25,0,0,0,.384.466l28.322,28.322H79.316Z" transform="translate(-27.493 0)"/>
    <path id="Path_513" data-name="Path 513" class="cls-1" d="M3.234,162.144H57.849a3.234,3.234,0,0,0,0-6.468H3.234a3.234,3.234,0,0,0,0,6.468Z" transform="translate(0 -40.055)"/>
    <path id="Path_514" data-name="Path 514" class="cls-1" d="M16.359,120.813H40.882a3.234,3.234,0,0,0,0-6.468H16.359a3.234,3.234,0,0,0,0,6.468Z" transform="translate(-7.466 -16.544)"/>
    <path id="Path_515" data-name="Path 515" class="cls-1" d="M26.948,226.51H3.234a3.234,3.234,0,1,0,0,6.468H26.948a3.234,3.234,0,1,0,0-6.468Z" transform="translate(0 -80.347)"/>
  </g>
</svg>
