<svg xmlns="http://www.w3.org/2000/svg" width="131.893" height="131.893" viewBox="0 0 131.893 131.893">
  <defs>
    <style>
      .cls-1 {
        fill: #fff;
      }
    </style>
  </defs>
  <g id="stupid" transform="translate(-16 -16)">
    <path id="Path_516" data-name="Path 516" class="cls-1" d="M81.946,16C45.416,16,16,59.292,16,95.136c0,33.036,24.653,52.757,65.946,52.757s65.946-19.722,65.946-52.757C147.893,59.292,118.477,16,81.946,16Zm0,127.5c-38.541,0-61.55-18.08-61.55-48.361C20.4,61.283,47.852,20.4,81.946,20.4S143.5,61.283,143.5,95.136C143.5,125.416,120.487,143.5,81.946,143.5Z"/>
    <path id="Path_517" data-name="Path 517" class="cls-1" d="M221.363,256c-2.154,0-3.616,2.106-5.467,4.774-.876,1.262-2.471,3.561-3.307,3.982a15.251,15.251,0,0,1-2.569-3.355c-1.716-2.655-3.492-5.4-6.243-5.4s-4.526,2.746-6.243,5.4a15.25,15.25,0,0,1-2.569,3.355c-.836-.421-2.431-2.72-3.307-3.982-1.851-2.668-3.312-4.774-5.467-4.774a2.2,2.2,0,0,0-.4,4.36,20.559,20.559,0,0,1,2.255,2.919c2.016,2.9,4.1,5.91,6.939,5.91,2.751,0,4.526-2.746,6.243-5.4a15.674,15.674,0,0,1,2.55-3.342,15.673,15.673,0,0,1,2.55,3.342c1.716,2.655,3.492,5.4,6.243,5.4,2.839,0,4.923-3.006,6.939-5.91a20.559,20.559,0,0,1,2.255-2.919,2.2,2.2,0,0,0-.4-4.36Z" transform="translate(-121.831 -174.054)"/>
    <path id="Path_518" data-name="Path 518" class="cls-1" d="M302.595,192a6.595,6.595,0,1,0,6.595,6.595A6.595,6.595,0,0,0,302.595,192Zm0,8.793a2.2,2.2,0,1,1,2.2-2.2A2.2,2.2,0,0,1,302.595,200.793Z" transform="translate(-203.063 -127.639)"/>
    <path id="Path_519" data-name="Path 519" class="cls-1" d="M181.189,198.595a6.595,6.595,0,1,0-6.595,6.595A6.595,6.595,0,0,0,181.189,198.595Zm-8.793,0a2.2,2.2,0,1,1,2.2,2.2A2.2,2.2,0,0,1,172.4,198.595Z" transform="translate(-110.234 -127.639)"/>
    <path id="Path_520" data-name="Path 520" class="cls-1" d="M145.47,146.753a2.2,2.2,0,1,0-4.165-1.4c-2.122,6.283-5.011,7.3-11.107,7.3a2.2,2.2,0,1,0,0,4.4C136.168,157.042,142.266,156.248,145.47,146.753Z" transform="translate(-81.225 -92.681)"/>
    <path id="Path_521" data-name="Path 521" class="cls-1" d="M335.338,152.646c-6.1,0-8.985-1.013-11.107-7.3a2.2,2.2,0,1,0-4.165,1.4c3.2,9.495,9.3,10.289,15.272,10.289a2.2,2.2,0,0,0,0-4.4Z" transform="translate(-220.418 -92.681)"/>
  </g>
</svg>
